#N canvas 723 210 550 374 10;
#X obj 116 -149 inlet;
#X obj 158 -149 inlet;
#X obj 201 -149 inlet;
#X text 113 -168 red;
#X text 161 -168 green;
#X text 202 -168 blue;
#X obj 252 -149 inlet;
#X obj 179 -112 bondo 4;
#X text 251 -167 amber;
#X text 311 -155 numeric ranges need to be 0 .. 1;
#X obj 119 -10 change;
#X obj 169 -10 change;
#X obj 219 -10 change;
#X obj 269 -10 change;
#X obj 119 19 * 255;
#X obj 169 19 * 255;
#X obj 219 19 * 255;
#X obj 269 19 * 255;
#X obj 119 44 int;
#X obj 169 44 int;
#X obj 219 44 int;
#X obj 269 44 int;
#X obj 201 155 outlet;
#X msg 119 69 print 1c\$1w;
#X msg 169 69 print 2c\$1w;
#X msg 219 69 print 3c\$1w;
#X msg 269 69 print 4c\$1w;
#X connect 0 0 7 0;
#X connect 1 0 7 1;
#X connect 2 0 7 2;
#X connect 6 0 7 3;
#X connect 7 0 10 0;
#X connect 7 1 11 0;
#X connect 7 2 12 0;
#X connect 7 3 13 0;
#X connect 10 0 14 0;
#X connect 11 0 15 0;
#X connect 12 0 16 0;
#X connect 13 0 17 0;
#X connect 14 0 18 0;
#X connect 15 0 19 0;
#X connect 16 0 20 0;
#X connect 17 0 21 0;
#X connect 18 0 23 0;
#X connect 19 0 24 0;
#X connect 20 0 25 0;
#X connect 21 0 26 0;
#X connect 23 0 22 0;
#X connect 24 0 22 0;
#X connect 25 0 22 0;
#X connect 26 0 22 0;
