#N canvas 292 316 553 556 10;
#X obj 66 31 inlet;
#X obj 128 28 inlet;
#X obj 201 26 inlet;
#X text 63 4 red;
#X text 131 9 green;
#X text 202 7 blue;
#X obj 349 232 * 0.749;
#X obj 334 265 +;
#X obj 82 197 * 255;
#X obj 148 195 * 255;
#X obj 307 314 / 466;
#X obj 132 452 outlet;
#X obj 37 453 outlet;
#X obj 227 452 outlet;
#X obj 307 452 outlet;
#X text 31 474 via http://stackoverflow.com/questions/32462331/rgb-to-rgb-plus-amber
;
#X obj 256 25 inlet;
#X text 255 7 brightness;
#X obj 203 195 s \$0-dmxbright;
#X obj 149 165 bondo 4;
#X obj 37 335 *;
#X obj 13 276 r \$0-dmxbright;
#X obj 13 301 t b f;
#X obj 132 334 *;
#X obj 108 275 r \$0-dmxbright;
#X obj 108 300 t b f;
#X obj 227 333 *;
#X obj 203 274 r \$0-dmxbright;
#X obj 203 299 t b f;
#X obj 307 291 255 *;
#X obj 307 235 bng 15 250 50 0 empty empty empty 17 7 0 10 -262144
-1 -1;
#X obj 307 410 *;
#X obj 283 351 r \$0-dmxbright;
#X obj 283 376 t b f;
#X obj 311 132 change;
#X msg 320 108 set \$1;
#X text 355 87 default brightness of 1;
#X floatatom 320 86 5 0 1 0 - - -;
#X obj 320 63 loadbang;
#X connect 0 0 19 0;
#X connect 1 0 19 1;
#X connect 2 0 19 2;
#X connect 6 0 7 1;
#X connect 7 0 29 1;
#X connect 8 0 7 0;
#X connect 8 0 30 0;
#X connect 9 0 6 0;
#X connect 9 0 30 0;
#X connect 10 0 31 0;
#X connect 16 0 34 0;
#X connect 19 0 8 0;
#X connect 19 0 20 0;
#X connect 19 1 9 0;
#X connect 19 1 23 0;
#X connect 19 2 26 0;
#X connect 19 3 18 0;
#X connect 20 0 12 0;
#X connect 21 0 22 0;
#X connect 22 0 20 0;
#X connect 22 1 20 1;
#X connect 23 0 11 0;
#X connect 24 0 25 0;
#X connect 25 0 23 0;
#X connect 25 1 23 1;
#X connect 26 0 13 0;
#X connect 27 0 28 0;
#X connect 28 0 26 0;
#X connect 28 1 26 1;
#X connect 29 0 10 0;
#X connect 30 0 29 0;
#X connect 31 0 14 0;
#X connect 32 0 33 0;
#X connect 33 0 31 0;
#X connect 33 1 31 1;
#X connect 34 0 19 3;
#X connect 35 0 34 0;
#X connect 37 0 35 0;
#X connect 38 0 37 0;
