#N canvas 785 345 550 374 10;
#X obj 97 -6 dmxRGBA2DmxSimpleMsg;
#X obj 83 -100 vsl 15 50 0 1 0 0 empty empty empty 0 -9 0 10 -258113
-262144 -1 0 1;
#X floatatom 83 -42 5 0 0 0 - - -;
#X obj 123 -101 vsl 15 50 0 1 0 0 empty empty empty 0 -9 0 10 -4034
-262144 -1 0 1;
#X floatatom 123 -43 5 0 0 0 - - -;
#X obj 163 -101 vsl 15 50 0 1 0 0 empty empty empty 0 -9 0 10 -4160
-262144 -1 0 1;
#X floatatom 163 -43 5 0 0 0 - - -;
#X obj 202 -100 vsl 15 50 0 1 0 0 empty empty empty 0 -9 0 10 -260097
-262144 -1 0 1;
#X floatatom 202 -42 5 0 0 0 - - -;
#X msg 412 105 ports;
#X msg 412 129 devices;
#X obj 112 154 comport 4 9600;
#X obj 346 71 cnv 15 60 22 empty empty empty 20 12 0 14 -253938 -66577
0;
#N canvas 146 163 525 433 serin 0;
#X obj 180 61 cnv 15 15 15 empty \$0-number-canvas 4 4 8 0 14 -233017
-1 0;
#X obj 200 225 s \$0-number-canvas;
#X obj 60 61 hradio 15 1 1 8 empty empty empty 0 -6 0 8 -225271 -1
-1 4;
#X obj 60 13 inlet;
#X msg 200 202 label \$1;
#X obj 200 180 makefilename %d;
#X obj 59 108 int;
#X msg 59 206 open \$1;
#X obj 59 377 outlet;
#X msg 201 306 set \$1 \$2;
#X obj 59 266 trigger bang anything;
#X obj 201 286 list;
#X obj 383 383 outlet;
#X obj 384 22 netreceive 34567;
#X obj 477 43 tgl 15 0 empty empty empty 0 -6 0 10 -262144 -1 -1 0
1;
#X obj 384 41 bng 15 250 50 0 empty empty empty 0 -6 0 10 -262144 -1
-1;
#X obj 187 24 delay 15000;
#X text 345 379 close;
#X text 209 4 for open/close automation in Makefile;
#X obj 184 95 bang;
#X obj 184 137 send ARDUINO_TEST_RESET;
#X msg 184 116 set 0;
#X connect 2 0 6 0;
#X connect 2 0 19 0;
#X connect 3 0 2 0;
#X connect 4 0 1 0;
#X connect 5 0 4 0;
#X connect 6 0 5 0;
#X connect 6 0 7 0;
#X connect 7 0 10 0;
#X connect 9 0 8 0;
#X connect 10 0 8 0;
#X connect 10 1 11 0;
#X connect 11 0 9 0;
#X connect 13 0 15 0;
#X connect 13 1 14 0;
#X connect 15 0 16 0;
#X connect 15 0 12 0;
#X connect 16 0 2 0;
#X connect 19 0 21 0;
#X connect 21 0 20 0;
#X coords 0 -1 1 1 136 17 1 60 60;
#X restore 352 50 pd serin;
#X text 349 32 serial port #;
#X msg 412 73 close;
#X msg 352 73 open 4;
#X text 338 -5 ↓ set the serial port;
#X text 348 9 first;
#X text 254 -116 Given Red \, Green \, Blue \, Amber values;
#X text 257 -103 as inputs \, generates messages to;
#X text 255 -73 connected Arduino.;
#X text 256 -89 control [SerialToDmx] firmare on a;
#X text 243 -38 ← expects values in the range [0..1];
#X connect 0 0 11 0;
#X connect 1 0 2 0;
#X connect 2 0 0 0;
#X connect 3 0 4 0;
#X connect 4 0 0 1;
#X connect 5 0 6 0;
#X connect 6 0 0 2;
#X connect 7 0 8 0;
#X connect 8 0 0 3;
#X connect 9 0 11 0;
#X connect 10 0 11 0;
#X connect 13 0 16 0;
#X connect 13 1 15 0;
#X connect 15 0 11 0;
#X connect 16 0 11 0;
