#N canvas 675 264 724 552 10;
#X obj 14 234 folder_list;
#X obj 14 151 bng 15 250 50 0 empty empty empty 17 7 0 10 -262144 -1
-1;
#X symbolatom 28 262 40 0 0 0 - - -;
#X obj 126 360 textfile;
#X msg 126 310 read \$1;
#X obj 26 357 shell;
#X obj 136 387 symbol;
#X symbolatom 136 413 40 0 0 0 - - -;
#X obj 14 45 inlet;
#X obj 180 36 inlet;
#X obj 126 435 outlet;
#X obj 14 285 trigger symbol bang symbol bang;
#X obj 352 277 bng 15 250 50 0 empty empty empty 17 7 0 10 -262144
-1 -1;
#X obj 14 123 metro 10000;
#X msg 14 315 rm \$1;
#X msg 197 309 clear rewind;
#X msg 75 311 rewind bang;
#X obj 108 40 inlet;
#X text 106 23 set folder;
#X text 180 20 file match;
#X obj 14 65 route bang float symbol;
#X obj 108 100 bondo 2;
#X obj 108 122 list;
#X text 13 29 bang to start;
#X msg 108 150 symbol ~/Dropbox/\$1/\$2;
#X connect 0 0 2 0;
#X connect 1 0 0 0;
#X connect 2 0 11 0;
#X connect 3 0 6 0;
#X connect 3 0 10 0;
#X connect 4 0 3 0;
#X connect 6 0 7 0;
#X connect 8 0 20 0;
#X connect 9 0 21 1;
#X connect 11 0 14 0;
#X connect 11 1 16 0;
#X connect 11 2 4 0;
#X connect 11 3 15 0;
#X connect 12 0 3 0;
#X connect 13 0 1 0;
#X connect 13 0 12 0;
#X connect 14 0 5 0;
#X connect 15 0 3 0;
#X connect 16 0 3 0;
#X connect 17 0 21 0;
#X connect 20 0 13 0;
#X connect 20 1 13 0;
#X connect 20 2 13 0;
#X connect 21 0 22 0;
#X connect 21 1 22 1;
#X connect 22 0 24 0;
#X connect 24 0 0 0;
