#N canvas 0 22 450 300 10;
#X obj 140 64 utime;
#X msg 139 97 set \$1;
#X obj 41 9 inlet;
#X obj 139 229 outlet;
#X msg 139 123 347824;
#X obj 211 12 inlet;
#X msg 139 180 \$1\$2;
#X obj 244 36 loadbang;
#X msg 211 96 .txt;
#X obj 13 10 bng 15 250 50 0 empty empty empty 17 7 0 10 -262144 -1
-1;
#X obj 41 34 trigger bang bang;
#X msg 244 59 set .txt;
#X obj 139 153 pack a s;
#X symbolatom 235 153 10 0 0 0 - - -;
#X obj 211 124 symbol;
#X obj 139 204 symbol;
#X connect 0 1 1 0;
#X connect 1 0 4 0;
#X connect 2 0 10 0;
#X connect 4 0 12 0;
#X connect 5 0 8 0;
#X connect 6 0 15 0;
#X connect 7 0 11 0;
#X connect 8 0 14 0;
#X connect 9 0 10 0;
#X connect 10 0 4 0;
#X connect 10 1 0 0;
#X connect 11 0 8 0;
#X connect 12 0 6 0;
#X connect 14 0 13 0;
#X connect 14 0 12 1;
#X connect 15 0 3 0;
