#N canvas 60 47 554 499 10;
#X obj 25 105 bng 15 250 50 0 empty empty empty 17 7 0 10 -262144 -1
-1;
#X obj 25 10 inlet;
#X obj 183 39 inlet;
#X obj 365 16 inlet;
#X obj 144 261 list;
#X obj 25 128 trigger bang bang;
#X msg 409 321 set \$1;
#X obj 392 255 list;
#X obj 144 15 inlet;
#X msg 235 330 print;
#X msg 188 300 test;
#X msg 389 348 hello;
#X obj 144 134 pack symbol symbol;
#X text 142 -3 set directory;
#X text 218 37 set filename;
#X text 363 -3 set contents;
#X msg 365 184 clear;
#X obj 365 76 t b a;
#X msg 144 323 write \$1;
#X obj 370 286 t b b l;
#X obj 179 363 msgfile;
#X obj 144 73 bondo 2;
#X obj 144 98 list;
#X msg 144 158 set ~/Dropbox/\$1/\$2;
#X msg 144 191 ~/Dropbox/letsgo/379648.txt;
#X text 23 -10 bang to write(s);
#X connect 0 0 5 0;
#X connect 1 0 0 0;
#X connect 2 0 21 1;
#X connect 3 0 17 0;
#X connect 4 0 18 0;
#X connect 4 0 10 0;
#X connect 5 1 24 0;
#X connect 6 0 11 0;
#X connect 6 0 20 0;
#X connect 7 0 19 0;
#X connect 8 0 21 0;
#X connect 9 0 20 0;
#X connect 12 0 23 0;
#X connect 16 0 20 0;
#X connect 17 0 16 0;
#X connect 17 1 7 0;
#X connect 18 0 20 0;
#X connect 19 1 11 0;
#X connect 19 2 6 0;
#X connect 21 0 22 0;
#X connect 21 1 22 1;
#X connect 22 0 12 0;
#X connect 23 0 24 0;
#X connect 24 0 4 0;
